HIERARCHY
ROOT Hips
{
	OFFSET 0.000000 8.830580 0.000000
	CHANNELS 6 Xposition Yposition Zposition Zrotation Yrotation Xrotation 
	JOINT Spine
	{
		OFFSET 0.000000 0.010000 0.000000
		CHANNELS 3 Zrotation Yrotation Xrotation
		JOINT Spine1
		{
			OFFSET 0.000000 2.459130 0.000000
			CHANNELS 3 Zrotation Yrotation Xrotation
			JOINT Neck
			{
				OFFSET 0.000000 2.484630 0.000000
				CHANNELS 3 Zrotation Yrotation Xrotation
				JOINT Head_virtual
				{
					OFFSET 0.000000 0.000000 0.000000
					CHANNELS 3 Zrotation Yrotation Xrotation
					JOINT Head
					{
						OFFSET 0.000000 0.927525 0.000000
						CHANNELS 3 Zrotation Yrotation Xrotation
						End Site
						{
							OFFSET 0.000000 0.000000 0.000000
						}
					}
				}
				JOINT LeftUpArm_virtual
				{
					OFFSET 0.000000 0.000000 0.000000
					CHANNELS 3 Zrotation Yrotation Xrotation
					JOINT LeftUpArm
					{
						OFFSET 1.248820 0.000000 0.000000
						CHANNELS 3 Zrotation Yrotation Xrotation
						JOINT LeftForeArm
						{
							OFFSET 2.597580 0.000000 0.000000
							CHANNELS 3 Zrotation Yrotation Xrotation
							JOINT LeftHand
							{
								OFFSET 2.455420 0.000000 0.000000
								CHANNELS 3 Zrotation Yrotation Xrotation
								End Site
								{
									OFFSET 0.000000 0.000000 0.000000
								}
							}
						}
					}
				}
				JOINT RightUpArm_virtual
				{
					OFFSET -0.000000 -0.000000 -0.000000
					CHANNELS 3 Zrotation Yrotation Xrotation
					JOINT RightUpArm
					{
						OFFSET -1.248820 -0.000000 -0.000000
						CHANNELS 3 Zrotation Yrotation Xrotation
						JOINT RightForeArm
						{
							OFFSET -2.597580 -0.000000 -0.000000
							CHANNELS 3 Zrotation Yrotation Xrotation
							JOINT RightHand
							{
								OFFSET -2.455420 -0.000000 -0.000000
								CHANNELS 3 Zrotation Yrotation Xrotation
								End Site
								{
									OFFSET 0.000000 0.000000 0.000000
								}
							}
						}
					}
				}
			}
		}
	}
	JOINT LeftUpLeg
	{
		OFFSET 1.271939 0.000000 0.000000
		CHANNELS 3 Zrotation Yrotation Xrotation
		JOINT LeftLowLeg
		{
			OFFSET 0.000000 -4.342910 0.000000
			CHANNELS 3 Zrotation Yrotation Xrotation
			JOINT LeftFoot
			{
				OFFSET 0.000000 -4.487670 0.000000
				CHANNELS 3 Zrotation Yrotation Xrotation
				JOINT LeftToeBase
				{
					OFFSET 0.000000 0.000000 1.515070
					CHANNELS 3 Zrotation Yrotation Xrotation
					End Site
					{
						OFFSET 0.000000 0.000000 0.000000
					}
				}
			}
		}
	}
	JOINT RightUpLeg
	{
		OFFSET -1.271939 0.000000 0.000000
		CHANNELS 3 Zrotation Yrotation Xrotation
		JOINT RightLowLeg
		{
			OFFSET 0.000000 -4.342910 0.000000
			CHANNELS 3 Zrotation Yrotation Xrotation
			JOINT RightFoot
			{
				OFFSET 0.000000 -4.487670 0.000000
				CHANNELS 3 Zrotation Yrotation Xrotation
				JOINT RightToeBase
				{
					OFFSET 0.000000 0.000000 1.515070
					CHANNELS 3 Zrotation Yrotation Xrotation
					End Site
					{
						OFFSET 0.000000 0.000000 0.000000
					}
				}
			}
		}
	}
}
MOTION
Frames: 17
Frame Time: 0.041667
-18.898439 9.181588 35.118051 -173.676770 0.328278 -172.649682 3.143626 -0.867670 -7.046402 4.369373 -0.507161 -8.378171 0.000000 0.000000 0.000000 -7.933276 -2.635813 34.714427 15.435265 11.252573 -83.588476 -24.851299 12.239500 -15.545400 22.982401 -12.450700 -24.861601 0.000000 -4.624940 0.000000 23.229700 9.206360 26.557301 21.498600 -7.624020 -9.877014 -18.987400 -2.055820 -56.768501 0.000000 16.277100 0.000000 -34.491901 -15.451700 54.045700 7.559611 0.086810 -5.742166 0.000000 0.000000 7.377380 -18.772022 6.764259 1.331671 0.000000 0.000000 -29.982500 6.169404 6.328656 -5.063678 0.000000 0.000000 8.525970 11.069176 -17.228260 6.553356 0.000000 0.000000 -30.585600 
-18.901719 9.181155 35.120797 -173.660757 0.269636 -172.520109 3.219887 -0.853452 -7.140866 4.308800 -0.502771 -8.429897 0.000000 0.000000 0.000000 -7.914809 -2.623619 34.690038 15.497489 11.249493 -83.512670 -24.861799 12.199900 -15.471900 22.938499 -12.297000 -25.042700 0.000000 -4.567900 0.000000 23.216101 9.488280 26.444799 21.498600 -7.676870 -9.933014 -18.882799 -1.997590 -56.728802 0.000000 16.299999 0.000000 -34.435501 -15.453400 54.099602 7.572775 -0.120758 -5.916723 0.000000 0.000000 7.406940 -18.772922 6.897959 1.263548 0.000000 0.000000 -29.937800 6.154482 6.268500 -5.209321 0.000000 0.000000 8.524360 11.093887 -17.199248 6.561604 0.000000 0.000000 -30.610000 
-18.904054 9.180901 35.123658 -173.647469 0.235604 -172.424233 3.256598 -0.842476 -7.197482 4.292815 -0.494994 -8.488559 0.000000 0.000000 0.000000 -7.904729 -2.609215 34.670811 15.561920 11.236196 -83.441792 -24.864201 12.178600 -15.565900 22.804100 -12.180000 -25.077299 0.000000 -4.546920 0.000000 23.164200 9.691200 26.301201 21.504499 -7.700250 -9.938995 -18.801500 -1.957680 -56.652199 0.000000 16.266899 0.000000 -34.265598 -15.551800 54.028301 7.584586 -0.253373 -6.050370 0.000000 0.000000 7.431830 -18.788656 6.975105 1.219729 0.000000 0.000000 -29.933800 6.142901 6.255946 -5.335253 0.000000 0.000000 8.545900 11.131701 -17.195085 6.558073 0.000000 0.000000 -30.634800 
-18.904983 9.181209 35.123751 -173.660912 0.377660 -172.589795 3.208959 -0.766485 -7.058145 4.319123 -0.410931 -8.472730 0.000000 0.000000 0.000000 -7.891924 -2.632951 34.683841 15.595494 11.233014 -83.409877 -24.869600 12.132900 -15.602300 22.667900 -11.967400 -25.072700 0.000000 -4.594440 0.000000 22.991501 9.804640 26.358700 21.535101 -7.738280 -9.979004 -18.732201 -1.860200 -56.651402 0.000000 16.187901 0.000000 -34.069401 -15.568200 54.070900 7.549310 -0.148507 -5.821060 0.000000 0.000000 7.376560 -18.782086 6.981927 1.245437 0.000000 0.000000 -29.931200 6.126732 6.364716 -5.183928 0.000000 0.000000 8.563790 11.110137 -17.201820 6.571185 0.000000 0.000000 -30.639200 
-18.906726 9.181286 35.124150 -173.665280 0.470793 -172.678384 3.196687 -0.710859 -6.981510 4.314381 -0.351948 -8.482871 0.000000 0.000000 0.000000 -7.865254 -2.689598 34.710487 15.607210 11.246962 -83.389687 -24.884600 12.132700 -15.675000 22.513700 -11.824100 -25.077600 0.000000 -4.641960 0.000000 22.920200 9.904350 26.418600 21.560101 -7.778690 -10.050995 -18.606100 -1.775110 -56.682201 0.000000 16.167900 0.000000 -33.791000 -15.627800 54.078300 7.520716 -0.067351 -5.694374 0.000000 0.000000 7.342880 -18.765712 6.987953 1.254017 0.000000 0.000000 -29.935800 6.111362 6.424425 -5.096478 0.000000 0.000000 8.555280 11.110469 -17.188350 6.581712 0.000000 0.000000 -30.681300 
-18.908897 9.180813 35.125853 -173.646731 0.421538 -172.583856 3.226520 -0.719184 -7.053979 4.299786 -0.361185 -8.561561 0.000000 0.000000 0.000000 -7.839185 -2.730470 34.739106 15.649901 11.249263 -83.330156 -24.863001 12.128600 -15.786100 22.313000 -11.692700 -25.050100 0.000000 -4.644850 0.000000 22.840200 9.805830 26.428699 21.563801 -7.789530 -10.019989 -18.472200 -1.784060 -56.554001 0.000000 16.129400 0.000000 -33.487999 -15.771900 53.718101 7.534891 -0.126850 -5.829304 0.000000 0.000000 7.377410 -18.772986 6.995548 1.216759 0.000000 0.000000 -29.925000 6.113524 6.358310 -5.186037 0.000000 0.000000 8.525330 11.070408 -17.181551 6.607161 0.000000 0.000000 -30.693700 
-18.910963 9.180268 35.126524 -173.646793 0.440056 -172.573137 3.223167 -0.700045 -7.060800 4.299894 -0.336945 -8.640931 0.000000 0.000000 0.000000 -7.820626 -2.781452 34.806588 15.703695 11.238712 -83.267465 -24.830400 12.120800 -15.933500 22.083300 -11.582600 -24.967800 0.000000 -4.644040 0.000000 22.815701 9.777800 26.317699 21.550501 -7.772720 -10.026001 -18.336300 -1.754600 -56.609600 0.000000 16.013300 0.000000 -33.393902 -15.710300 53.653400 7.521206 -0.132447 -5.826906 0.000000 0.000000 7.354730 -18.758352 7.012742 1.201791 0.000000 0.000000 -29.941800 6.100106 6.363950 -5.185853 0.000000 0.000000 8.497660 11.075643 -17.172389 6.595376 0.000000 0.000000 -30.688400 
-18.912508 9.180076 35.126425 -173.650257 0.490261 -172.596683 3.202279 -0.658513 -7.043368 4.297446 -0.287397 -8.707500 0.000000 0.000000 0.000000 -7.795806 -2.834593 34.878956 15.779454 11.242417 -83.219493 -24.826799 12.123200 -15.965300 21.911900 -11.484100 -25.110001 0.000000 -4.648800 0.000000 22.811899 9.707000 26.431000 21.560499 -7.799640 -10.075989 -18.199900 -1.725850 -56.604500 0.000000 15.961800 0.000000 -33.299900 -15.683000 53.707901 7.501171 -0.066411 -5.770544 0.000000 0.000000 7.316940 -18.749789 6.992638 1.213124 0.000000 0.000000 -29.940200 6.085624 6.424452 -5.151678 0.000000 0.000000 8.477890 11.073240 -17.196842 6.592721 0.000000 0.000000 -30.671700 
-18.914639 9.179728 35.127139 -173.657659 0.486170 -172.585425 3.193559 -0.646048 -7.054701 4.288998 -0.269247 -8.776398 0.000000 0.000000 0.000000 -7.790809 -2.849932 34.915686 15.877340 11.221088 -83.168001 -24.822201 12.115100 -15.967300 21.766100 -11.352600 -25.107201 0.000000 -4.655130 0.000000 22.727400 9.709260 26.467699 21.540400 -7.799430 -10.112000 -18.029301 -1.759370 -56.438900 0.000000 15.991100 0.000000 -33.321301 -15.836800 53.663200 7.484411 -0.107782 -5.770120 0.000000 0.000000 7.283210 -18.730129 7.024065 1.211494 0.000000 0.000000 -29.947200 6.067735 6.354935 -5.151922 0.000000 0.000000 8.446350 11.057183 -17.153224 6.606682 0.000000 0.000000 -30.711200 
-18.916299 9.179455 35.126975 -173.658580 0.475145 -172.561014 3.178854 -0.639321 -7.102124 4.287085 -0.256320 -8.833739 0.000000 0.000000 0.000000 -7.779752 -2.882317 34.960204 15.952645 11.207186 -83.121806 -24.838400 12.104800 -16.019100 21.660000 -11.265200 -25.144899 0.000000 -4.666630 0.000000 22.620199 9.772620 26.521700 21.555000 -7.790890 -10.015991 -17.926500 -1.764820 -56.816700 0.000000 15.877000 0.000000 -33.343201 -15.646800 53.910099 7.476390 -0.095991 -5.788078 0.000000 0.000000 7.268000 -18.740592 6.989723 1.219364 0.000000 0.000000 -29.974300 6.055753 6.357976 -5.173596 0.000000 0.000000 8.443020 11.060712 -17.162855 6.597999 0.000000 0.000000 -30.698900 
-18.918155 9.179235 35.126957 -173.656194 0.459779 -172.555581 3.177217 -0.631253 -7.128795 4.271107 -0.244115 -8.895332 0.000000 0.000000 0.000000 -7.760000 -2.969744 35.018499 15.973100 11.202656 -83.107229 -24.839500 12.106600 -16.118900 21.545200 -11.238100 -25.083700 0.000000 -4.636200 0.000000 22.576099 9.792560 26.711399 21.522699 -7.752570 -10.085999 -17.796400 -1.803710 -56.764000 0.000000 15.781000 0.000000 -33.453701 -15.582400 53.839699 7.468518 -0.107556 -5.791130 0.000000 0.000000 7.255680 -18.715594 6.997903 1.214650 0.000000 0.000000 -29.960500 6.048730 6.352639 -5.175414 0.000000 0.000000 8.437180 11.066958 -17.176227 6.593576 0.000000 0.000000 -30.720300 
-18.920153 9.179011 35.127005 -173.650803 0.440872 -172.542015 3.177198 -0.616128 -7.171117 4.264689 -0.226147 -8.938560 0.000000 0.000000 0.000000 -7.751313 -3.037286 35.071814 15.994602 11.194745 -83.109519 -24.846600 12.066500 -16.152000 21.439400 -11.161600 -25.075500 0.000000 -4.615650 0.000000 22.638399 9.755680 26.670500 21.517200 -7.765050 -10.169006 -17.712000 -1.799730 -56.814201 0.000000 15.732900 0.000000 -33.490299 -15.588800 53.769798 7.463669 -0.123289 -5.812033 0.000000 0.000000 7.261270 -18.700963 6.997325 1.205983 0.000000 0.000000 -29.965700 6.040555 6.387520 -5.195259 0.000000 0.000000 8.451840 11.108773 -17.211240 6.565938 0.000000 0.000000 -30.680300 
-18.922304 9.178760 35.127240 -173.654497 0.403991 -172.516749 3.150800 -0.617782 -7.243564 4.294970 -0.222485 -8.947718 0.000000 0.000000 0.000000 -7.744026 -3.131949 35.092805 15.964780 11.168983 -83.107085 -24.857500 12.072700 -16.198601 21.327801 -11.171600 -25.060301 0.000000 -4.562170 0.000000 22.662600 9.778230 26.466999 21.504601 -7.732880 -10.233002 -17.661100 -1.852540 -56.781601 0.000000 15.749200 0.000000 -33.423401 -15.821700 53.737202 7.451452 -0.171399 -5.867006 0.000000 0.000000 7.295640 -18.704513 7.003897 1.188873 0.000000 0.000000 -29.966200 6.025909 6.363100 -5.222844 0.000000 0.000000 8.456410 11.119384 -17.222966 6.550926 0.000000 0.000000 -30.694700 
-18.924474 9.178829 35.127539 -173.658760 0.371411 -172.542177 3.140873 -0.610834 -7.275516 4.278868 -0.213052 -8.945913 0.000000 0.000000 0.000000 -7.737223 -3.170312 35.132196 15.978611 11.169347 -83.109031 -24.838499 12.036100 -16.192400 21.226101 -11.112300 -25.014601 0.000000 -4.585030 0.000000 22.680000 9.745420 26.566000 21.476999 -7.727740 -10.218994 -17.538799 -1.933830 -56.761501 0.000000 15.789400 0.000000 -33.357498 -15.840300 53.652901 7.435188 -0.181134 -5.881120 0.000000 0.000000 7.347470 -18.699515 6.986994 1.183490 0.000000 0.000000 -29.949800 6.009159 6.412873 -5.226302 0.000000 0.000000 8.507820 11.181584 -17.269151 6.513112 0.000000 0.000000 -30.699900 
-18.926418 9.178727 35.128152 -173.671205 0.343401 -172.614758 3.117510 -0.609726 -7.271644 4.270244 -0.209898 -8.893291 0.000000 0.000000 0.000000 -7.711606 -3.257337 35.138724 15.917568 11.176805 -83.102924 -24.813801 12.036400 -16.205700 21.098700 -11.087900 -24.958900 0.000000 -4.651250 0.000000 22.691999 9.760820 26.563999 21.416201 -7.730930 -10.221008 -17.375999 -1.976990 -56.824799 0.000000 15.807400 0.000000 -33.295898 -15.758800 53.507599 7.411957 -0.191536 -5.853803 0.000000 0.000000 7.406240 -18.680363 6.966727 1.184043 0.000000 0.000000 -29.952500 5.991136 6.439849 -5.186515 0.000000 0.000000 8.565870 11.223759 -17.302974 6.473043 0.000000 0.000000 -30.676500 
-18.928201 9.178753 35.129831 -173.678675 0.285900 -172.705109 3.101060 -0.626738 -7.259037 4.260149 -0.226764 -8.835650 0.000000 0.000000 0.000000 -7.735306 -3.229365 35.181832 16.019944 11.158341 -83.127448 -24.793900 11.979000 -16.122801 21.018101 -10.985800 -24.926800 0.000000 -4.727990 0.000000 22.723700 9.737550 26.679501 21.408800 -7.684150 -10.152008 -17.300301 -2.053730 -56.912102 0.000000 15.816400 0.000000 -33.283501 -15.668000 53.461700 7.398129 -0.211915 -5.835630 0.000000 0.000000 7.494640 -18.667760 6.921994 1.180909 0.000000 0.000000 -29.937600 5.994196 6.365863 -5.133668 0.000000 0.000000 8.620240 11.254432 -17.305949 6.445481 0.000000 0.000000 -30.608500 
-18.930019 9.178656 35.132307 -173.685238 0.233559 -172.777537 3.059211 -0.642477 -7.283261 4.308040 -0.242285 -8.703629 0.000000 0.000000 0.000000 -7.739787 -3.296707 35.206336 15.959423 11.131696 -83.132433 -24.783100 11.946700 -16.044500 20.883699 -10.918900 -24.966299 0.000000 -4.804130 0.000000 22.806400 9.649650 26.724100 21.360399 -7.646540 -10.105011 -17.210600 -2.102860 -57.021500 0.000000 15.826700 0.000000 -33.299801 -15.580600 53.491299 7.388690 -0.280956 -5.834610 0.000000 0.000000 7.569810 -18.669804 6.916706 1.176463 0.000000 0.000000 -29.968800 5.985139 6.394260 -5.127895 0.000000 0.000000 8.720600 11.320694 -17.355385 6.392828 0.000000 0.000000 -30.607700 
